# xmcd CD database file
#
# Track frame offsets:
#	150
#	22465
#	37177
#	56618
#	68237
#	84475
#	101193
#	120294
#	137425
#	151719
#	165653
#	185553
#	200460
#
# Disc length: 2884 seconds
#
# Revision: 0
# Processed by: cddbd v1.5PL3 Copyright (c) Steve Scherf et al.
# Submitted via: CDex 1.50
#
DISCID=b10b420d
DTITLE=Sarka Rezkova - Muzu chtit vic ...
DYEAR=2000
DGENRE=Country
TTITLE0=Muzu chtit vic
TTITLE1=Pojd a dej mi pusu
TTITLE2=Cekej tise
TTITLE3=Kluk z New Orleans
TTITLE4=Bila orchidej
TTITLE5=Nic moc
TTITLE6=Ostrovy v proudu
TTITLE7=Uz vim, jak mi odpovis
TTITLE8=Chci blbou hrat
TTITLE9=Tobe nalezel cas
TTITLE10=Umim v koute stat
TTITLE11=Bar Harlequin
TTITLE12=Ztracena laska
EXTD=YEAR: 2000
EXTT0=
EXTT1=
EXTT2=
EXTT3=
EXTT4=
EXTT5=
EXTT6=
EXTT7=
EXTT8=
EXTT9=
EXTT10=
EXTT11=
EXTT12=
PLAYORDER=
